<svg t="1588819567326" class="icon" viewBox="0 0 1024 1024" version="1.1" xmlns="http://www.w3.org/2000/svg" p-id="3761" width="200" height="200"><path d="M756.025514 671.065501a99.584792 99.584792 0 1 0 99.584792 99.584793 99.877258 99.877258 0 0 0-99.584792-99.584793z m48.476297 99.731026a48.330064 48.330064 0 1 1-48.330064-48.330065 48.403181 48.403181 0 0 1 48.330064 48.256948z" p-id="3762"></path><path d="M1018.587179 718.518167a34.803496 34.803496 0 0 0-32.609998-32.463765h-2.339731a56.446005 56.446005 0 0 1-56.372889-56.226656 69.095175 69.095175 0 0 1 4.752579-21.350043 41.237755 41.237755 0 0 0-15.500717-50.157979l-65.804929-36.558294a39.044258 39.044258 0 0 0-16.670582-3.144013 44.308652 44.308652 0 0 0-31.805715 13.087869 87.301205 87.301205 0 0 1-45.186051 25.663922 84.230309 84.230309 0 0 1-45.186051-26.468205 44.674235 44.674235 0 0 0-48.110715-9.943855l-1.169865 0.365582-66.974794 36.558294-1.608565 1.169866a40.725939 40.725939 0 0 0-13.892152 48.988113 68.144659 68.144659 0 0 1 5.118162 21.350044 56.519122 56.519122 0 0 1-56.372889 56.226655h-2.778431a34.876612 34.876612 0 0 0-32.171298 32.463765 250.424312 250.424312 0 0 0 0 104.55672 34.803496 34.803496 0 0 0 32.609998 32.463765h2.339731a56.446005 56.446005 0 0 1 56.372889 56.226656 69.241408 69.241408 0 0 1-4.752579 21.350043 41.091522 41.091522 0 0 0 15.135134 50.157979l64.635063 36.046478a39.190491 39.190491 0 0 0 16.451232 3.509596 42.84632 42.84632 0 0 0 31.878832-13.307219 85.91199 85.91199 0 0 1 45.990334-27.63807 87.739905 87.739905 0 0 1 46.355916 28.07677 43.869952 43.869952 0 0 0 32.171299 13.892151 44.674235 44.674235 0 0 0 17.840447-3.948296l65.439346-36.046477 1.608565-1.169866a40.799056 40.799056 0 0 0 13.892151-48.988113 68.217776 68.217776 0 0 1-5.118161-21.350044 56.446005 56.446005 0 0 1 56.372889-56.226655h2.77843a34.876612 34.876612 0 0 0 32.171299-32.463765 347.376907 347.376907 0 0 0 5.483744-52.132127 304.23812 304.23812 0 0 0-4.971928-52.790176z m-49.134347 86.570039a107.627617 107.627617 0 0 0-93.662348 106.384635 115.451092 115.451092 0 0 0 5.483744 32.463765l-47.160199 26.102621a314.986259 314.986259 0 0 0-19.449012-16.670582 103.459971 103.459971 0 0 0-59.882485-23.324191 100.754657 100.754657 0 0 0-59.516902 22.958608 188.348329 188.348329 0 0 0-19.449013 16.231883l-45.186051-25.298339a104.410487 104.410487 0 0 0 5.483744-32.463765 107.262034 107.262034 0 0 0-93.589232-106.384635 190.103127 190.103127 0 0 1 0-68.948942 107.627617 107.627617 0 0 0 93.662349-106.384634 115.743558 115.743558 0 0 0-5.483744-32.463765l48.768764-26.468205a123.859499 123.859499 0 0 0 78.161632 37.581926 103.752438 103.752438 0 0 0 58.49327-21.350043 164.292972 164.292972 0 0 0 19.083429-15.4276l46.794616 25.663922a104.33737 104.33737 0 0 0-5.483744 32.463765 107.262034 107.262034 0 0 0 93.662348 106.384634 291.150251 291.150251 0 0 1 3.144013 34.437913 273.60227 273.60227 0 0 1-3.875179 34.511029zM438.333941 0.074579a257.297271 257.297271 0 0 0-258.17467 255.908056 253.422092 253.422092 0 0 0 99.146093 201.070615l16.304999 12.722286-19.083429 7.311659A432.411498 432.411498 0 0 0 0 880.105825v133.657122h66.755444v-133.584006a370.189282 370.189282 0 0 1 336.336302-366.752802h0.365583a348.108073 348.108073 0 0 1 34.949729-1.535448h5.118161a256.858572 256.858572 0 0 0 137.678534-42.334504l16.304999-12.722287a253.275859 253.275859 0 0 0 99.219209-200.851265 257.589737 257.589737 0 0 0-258.39402-255.908056z m0 446.011183a190.103127 190.103127 0 1 1 191.565459-190.103127 190.90741 190.90741 0 0 1-191.492342 190.103127z" p-id="3763"></path><path d="M671.795205 499.241521a450.690645 450.690645 0 0 0-53.009526-25.152106l-5.410627-2.120381a308.990698 308.990698 0 0 1-80.428246 44.674235 370.993564 370.993564 0 0 1 65.804928 20.253295 375.38056 375.38056 0 0 1 73.043471-37.655043z" p-id="3764"></path></svg>
