<?xml version="1.0" standalone="no"?><!DOCTYPE svg PUBLIC "-//W3C//DTD SVG 1.1//EN" "http://www.w3.org/Graphics/SVG/1.1/DTD/svg11.dtd"><svg t="1591000962722" class="icon" viewBox="0 0 1024 1024" version="1.1" xmlns="http://www.w3.org/2000/svg" p-id="2812" xmlns:xlink="http://www.w3.org/1999/xlink" width="200" height="200"><defs><style type="text/css"></style></defs><path d="M92.9 355.3c15.8 0 27.9-12.1 27.9-27.9V185.8c0-36.3 28.9-65.2 65.2-65.2h140.6c15.8 0 27.9-12.1 27.9-27.9 0-15.8-12.1-27.9-27.9-27.9H185.9c-67 0-121 54-121 121v141.5c0 14.9 12.1 28 28 28z m837.7 317.4c-15.8 0-27.9 12.1-27.9 27.9v136.8c0 36.3-28.9 65.2-65.2 65.2H699.8c-15.8 0-27.9 12.1-27.9 27.9 0 15.8 12.1 27.9 27.9 27.9h137.8c67 0 121-54 121-121V700.6c0-14.9-12.1-27.9-28-27.9z m-93-607.9H697.9c-15.8 0-27.9 12.1-27.9 27.9 0 15.8 12.1 27.9 27.9 27.9h139.6c36.3 0 65.2 28.9 65.2 65.2v142.4c0 15.8 12.1 27.9 27.9 27.9 15.8 0 27.9-12.1 27.9-27.9V185.8c0.1-67-53.9-121-120.9-121z m-512 837.8H185.9c-36.3 0-65.2-28.9-65.2-65.2V699.7c0-15.8-12.1-27.9-27.9-27.9-15.8 0-27.9 12.1-27.9 27.9v137.8c0 67 54 121 121 121h139.6c15.8 0 27.9-12.1 27.9-27.9 0.1-15.9-12-28-27.8-28zM120.8 474.4c-15.8 0-27.9 12.1-27.9 27.9 0 15.8 12.1 27.9 27.9 27.9h74.5c15.8 0 27.9-12.1 27.9-27.9 0-15.8-12.1-27.9-27.9-27.9h-74.5z m781.9 55.9c15.8 0 27.9-12.1 27.9-27.9 0-15.8-12.1-27.9-27.9-27.9h-74.5c-15.8 0-27.9 12.1-27.9 27.9 0 15.8 12.1 27.9 27.9 27.9h74.5zM735.2 716.4c0-10.2-8.4-18.6-18.6-18.6h-53.1c44.7-60.5 52.1-170.4 53.1-185.2 0.9-10.2-7.4-18.6-17.7-19.5-10.2-0.9-18.6 7.4-19.6 17.7-2.8 41-20.5 163.8-69.8 186.2-0.9 0-1.9 0.9-1.9 0.9H428c-10.2 0-18.6 8.4-18.6 18.6 0 10.2 8.4 18.6 18.6 18.6h288.6c10.2 0 18.6-8.4 18.6-18.7zM422.4 433.5c5.6 8.4 17.7 10.2 26.1 4.7 1.9-1.9 50.3-35.4 121-114.5l1.9-1.9c0.9-1.9 2.8-3.7 4.7-4.7 1.9 0.9 5.6 3.7 10.2 8.4 42.8 41 102.4 94 145.2 114.5 2.8 0.9 5.6 1.9 8.4 1.9 6.5 0 13-3.7 16.8-10.2 4.7-9.3 0.9-20.5-8.4-25.1-40-20.5-102.4-76.3-135.9-108-17.7-16.8-31.7-19.5-36.3-19.5h-2.8l-1.9 0.9c-12.1 2.8-22.3 10.2-29.8 20.5-67 74.5-113.6 108-113.6 108-10.3 5.4-12.1 16.6-5.6 25z m0 0" p-id="2813"></path><path d="M685.8 446.5c0-10.2-8.4-18.6-18.6-18.6H481c-10.2 0-18.6 8.4-18.6 18.6s8.4 18.6 18.6 18.6h77.3c-3.7 0-7.4 0.9-10.2 2.8-8.4 5.6-11.2 16.8-5.6 26.1 0 0.9 38.2 60.5 43.7 158.2 0.9 10.2 8.4 17.7 18.6 17.7h0.9c10.2-0.9 17.7-9.3 17.7-19.6-5.6-107.1-47.5-174.1-49.3-176.9-3.7-5.6-9.3-8.4-14.9-8.4h108c10.2 0.1 18.6-8.3 18.6-18.5z m0 0" p-id="2814"></path><path d="M487.5 480.9c-9.3 3.7-14 14.9-10.2 24.2 22.3 52.1 34.4 108 34.4 164.8 0 10.2 8.4 18.6 18.6 18.6 10.2 0 18.6-8.4 18.6-18.6 0-62.4-13-121.9-37.2-179.7-3.7-9.3-14.8-13.9-24.2-9.3z m-58.6 62.4c0 7.4 4.7 14.9 12.1 17.7 1.9 0.9 4.7 0.9 6.5 0.9 7.4 0 14-4.7 17.7-12.1 3.7-8.4 7.4-18.6-59.6-128.5 9.3-0.9 17.7-8.4 17.7-18.6 0-10.2-8.4-18.6-18.6-18.6H387v-77.3c0-10.2-8.4-18.6-18.6-18.6-10.2 0-18.6 8.4-18.6 18.6V386h-38.2c-10.2 0-18.6 8.4-18.6 18.6 0 10.2 8.4 18.6 18.6 18.6h10.2c-19.5 108.9-64.2 174.1-65.2 175-5.6 8.4-3.7 19.5 4.7 26.1 3.7 1.9 7.4 3.7 11.2 3.7 5.6 0 11.2-2.8 14.9-7.4 1.9-2.8 39.1-56.8 62.4-149.9v245.7c0 10.2 8.4 18.6 18.6 18.6 10.2 0 18.6-8.4 18.6-18.6V463.2c20.5 35.4 39.1 69.9 41.9 80.1z m0 0" p-id="2815"></path></svg>