<svg t="1593669563551" class="icon" viewBox="0 0 1024 1024" version="1.1" xmlns="http://www.w3.org/2000/svg" p-id="7700" width="200" height="200"><path d="M0 255.744A255.744 255.744 0 0 1 255.744 0h512.512A255.744 255.744 0 0 1 1024 255.744v512.512A255.744 255.744 0 0 1 768.256 1024H255.744A255.744 255.744 0 0 1 0 768.256V255.744z m476.992 517.696a66.112 66.112 0 0 0 52.48-25.92l295.424-385.152a66.176 66.176 0 0 0-105.088-80.448L469.44 608.384 368 511.104a66.176 66.176 0 0 0-91.52 95.488l154.88 148.416c12.224 11.84 28.672 18.432 45.696 18.432z" fill="#72C43B" p-id="7701"></path></svg>
