<?xml version="1.0" standalone="no"?><!DOCTYPE svg PUBLIC "-//W3C//DTD SVG 1.1//EN" "http://www.w3.org/Graphics/SVG/1.1/DTD/svg11.dtd"><svg t="1591001017436" class="icon" viewBox="0 0 1030 1024" version="1.1" xmlns="http://www.w3.org/2000/svg" p-id="3839" xmlns:xlink="http://www.w3.org/1999/xlink" width="201.171875" height="200"><defs><style type="text/css"></style></defs><path d="M830.643545 465.633911c-17.434636 0-31.568401-14.133765-31.5684-31.5684V134.165703a7.8921 7.8921 0 0 0-7.892101-7.8921H149.949904a7.8921 7.8921 0 0 0-7.892101 7.8921v741.857418a7.8921 7.8921 0 0 0 7.892101 7.892101h285.102119c17.434636 0 31.568401 14.133765 31.568401 31.5684 0 17.434636-14.133765 31.568401-31.568401 31.568401H110.489403c-17.434636 0-31.568401-14.133765-31.568401-31.568401V94.705202c0-17.434636 14.133765-31.568401 31.568401-31.5684h720.154142c17.434636 0 31.568401 14.133765 31.568401 31.5684v339.360309c0 17.434636-14.133765 31.568401-31.568401 31.5684zM223.938343 266.358382h464.647399c17.434636 0 31.568401 14.133765 31.568401 31.5684 0 17.434636-14.133765 31.568401-31.568401 31.568401H223.938343c-17.434636 0-31.568401-14.133765-31.568401-31.568401 0-17.434636 14.133765-31.568401 31.568401-31.5684z m4.932563 203.221579h209.140655c17.434636 0 31.568401 14.133765 31.5684 31.568401 0 17.434636-14.133765 31.568401-31.5684 31.568401H228.870906c-17.434636 0-31.568401-14.133765-31.568401-31.568401 0-17.434636 14.133765-31.568401 31.568401-31.568401z m0 203.22158h209.140655c17.434636 0 31.568401 14.133765 31.5684 31.568401 0 17.434636-14.133765 31.568401-31.5684 31.568401H228.870906c-17.434636 0-31.568401-14.133765-31.568401-31.568401 0-17.434636 14.133765-31.568401 31.568401-31.568401z m299.899807-203.22158h43.406551c17.434636 0 31.568401 14.133765 31.568401 31.568401 0 17.434636-14.133765 31.568401-31.568401 31.568401h-43.406551c-17.434636 0-31.568401-14.133765-31.568401-31.568401 0-17.434636 14.133765-31.568401 31.568401-31.568401z m226.404624 35.514451c48.217773 0 87.306358 39.088586 87.306359 87.306359v141.071291c0 48.217773-39.088586 87.306358-87.306359 87.306358S667.868979 781.689834 667.868979 733.472062v-141.071291c0-48.217773 39.088586-87.306358 87.306358-87.306359z m0 55.244702c-17.7079 0-32.061657 14.353757-32.061657 32.061657v141.071291c0 17.7079 14.353757 32.061657 32.061657 32.061657s32.061657-14.353757 32.061657-32.061657v-141.071291c0-17.7079-14.353757-32.061657-32.061657-32.061657zM783.290944 897.256817V919.429672h26.635838c15.25543 0 27.622351 12.366921 27.622351 27.622351s-12.366921 27.622351-27.622351 27.622351H695.491329c-15.25543 0-27.622351-12.366921-27.62235-27.622351s12.366921-27.622351 27.62235-27.622351h32.554914v-21.312616C634.544586 886.022412 562.312139 806.098127 562.312139 709.302505v-14.797688c0-15.25543 12.366921-27.622351 27.62235-27.622351s27.622351 12.366921 27.622351 27.622351v14.797688c0 74.642497 60.509719 135.152216 135.152216 135.152216s135.152216-60.509719 135.152216-135.152216v-14.797688c0-15.25543 12.366921-27.622351 27.62235-27.622351s27.622351 12.366921 27.622351 27.622351v14.797688c0 94.74269-69.200894 173.323345-159.815029 187.954312z" p-id="3840"></path></svg>