<svg t="1593669748606" class="icon" viewBox="0 0 1170 1024" version="1.1" xmlns="http://www.w3.org/2000/svg" p-id="9058" width="200" height="200"><path d="M1146.635703 843.190857L686.859703 75.556571c-56.027429-100.717714-147.382857-100.717714-203.337143 0L23.600274 843.190857C-32.354011 943.981714 14.896274 1024 126.804846 1024h919.625143c108.982857 0 156.233143-83.017143 100.205714-180.809143zM550.740846 318.610286c0-24.283429 16.091429-45.568 34.450285-45.568s34.377143 21.211429 34.377143 45.568V637.074286c0 24.283429-16.018286 45.494857-34.377143 45.494857s-34.377143-21.211429-34.377142-45.494857V318.610286z m68.900571 568.832a68.973714 68.973714 0 0 1-68.900571-68.242286c0-35.766857 32.841143-68.242286 68.900571-68.242286 36.059429 0 68.754286 32.475429 68.754286 68.242286a68.973714 68.973714 0 0 1-68.754286 68.242286z" fill="#FF9900"  p-id="9059"></path></svg>
