<svg t="1593669812635" class="icon" viewBox="0 0 1024 1024" version="1.1" xmlns="http://www.w3.org/2000/svg" p-id="10460" width="200" height="200"><path d="M511.974 832.051a55.117 55.117 0 0 1-55.09-55.04 55.117 55.117 0 0 1 110.156 0c0 30.362-24.704 55.04-55.066 55.04m0-607.309c30.106 0 54.63 24.5 54.63 54.682l-15.666 346.88c0 31.59-19.533 48.64-38.964 48.64-18.636 0-37.58-17.05-37.58-49.638l-17.076-344.832c0-31.232 24.55-55.732 54.656-55.732m0-224.742C229.632 0 0 229.632 0 512c0 282.291 229.658 512 511.974 512C794.266 1024 1024 794.291 1024 512 1024 229.632 794.266 0 511.974 0" fill="#d81e06" p-id="10461"></path></svg>
