<svg t="1588819724410" class="icon" viewBox="0 0 1024 1024" version="1.1" xmlns="http://www.w3.org/2000/svg" p-id="4137" width="200" height="200"><path d="M332.8 492.8c-57.6 19.2-96 64-96 121.6 19.2-25.6 51.2-38.4 83.2-51.2l12.8-70.4zM153.6 576l-51.2-288v-6.4C192 230.4 300.8 204.8 403.2 204.8h6.4c19.2-19.2 51.2-38.4 83.2-38.4 32-6.4 57.6-6.4 89.6-6.4-12.8-19.2-38.4-38.4-64-44.8-38.4-6.4-76.8-12.8-115.2-12.8-121.6 0-243.2 32-345.6 89.6-38.4 19.2-57.6 64-51.2 108.8l51.2 288c25.6 128 217.6 224 326.4 224h12.8c-19.2-25.6-44.8-64-64-108.8-76.8-19.2-166.4-76.8-179.2-128z m153.6-224c0-6.4-6.4-12.8-6.4-19.2-12.8 19.2-32 25.6-51.2 32-25.6 6.4-44.8 0-64-6.4v19.2c6.4 32 38.4 57.6 70.4 51.2 38.4-6.4 57.6-38.4 51.2-76.8z m659.2-57.6c-140.8-76.8-307.2-108.8-467.2-83.2-38.4 6.4-76.8 44.8-83.2 89.6l-51.2 288c-25.6 140.8 153.6 313.6 249.6 332.8 102.4 19.2 326.4-83.2 352-224l51.2-288c12.8-44.8-6.4-89.6-51.2-115.2zM531.2 448c6.4-32 44.8-57.6 76.8-51.2s57.6 38.4 51.2 76.8c0 6.4-6.4 12.8-6.4 19.2-12.8-19.2-32-25.6-57.6-32-25.6-6.4-44.8 0-64 6.4V448z m115.2 320c-89.6-12.8-147.2-96-140.8-179.2 32 38.4 89.6 76.8 160 83.2s134.4 0 179.2-25.6c-25.6 83.2-108.8 134.4-198.4 121.6z m204.8-243.2c-12.8-12.8-32-25.6-57.6-32-25.6-6.4-44.8 0-64 6.4v-19.2c6.4-32 38.4-57.6 76.8-51.2 32 6.4 57.6 38.4 51.2 76.8 0 6.4 0 12.8-6.4 19.2z" p-id="4138"></path></svg>
